<mxfile host="app.diagrams.net" modified="2024-04-10T10:51:26.528Z" agent="Mozilla/5.0 (Windows NT 10.0; Win64; x64) AppleWebKit/537.36 (KHTML, like Gecko) Chrome/123.0.0.0 Safari/537.36" etag="SFWR9UJODb_gaT2RlQr3" version="24.2.3" type="github">
  <diagram id="C5RBs43oDa-KdzZeNtuy" name="Page-1">
    <mxGraphModel dx="2645" dy="921" grid="1" gridSize="10" guides="1" tooltips="1" connect="1" arrows="1" fold="1" page="1" pageScale="1" pageWidth="827" pageHeight="1169" math="0" shadow="0">
      <root>
        <mxCell id="WIyWlLk6GJQsqaUBKTNV-0" />
        <mxCell id="WIyWlLk6GJQsqaUBKTNV-1" parent="WIyWlLk6GJQsqaUBKTNV-0" />
        <mxCell id="LsWoBtM9ElnnkDUphN9U-0" value="" style="rounded=0;whiteSpace=wrap;html=1;fillColor=#d5e8d4;strokeColor=#82b366;" vertex="1" parent="WIyWlLk6GJQsqaUBKTNV-1">
          <mxGeometry x="100" y="630" width="940" height="640" as="geometry" />
        </mxCell>
        <mxCell id="LsWoBtM9ElnnkDUphN9U-7" style="edgeStyle=orthogonalEdgeStyle;rounded=0;orthogonalLoop=1;jettySize=auto;html=1;exitX=1;exitY=0.5;exitDx=0;exitDy=0;entryX=0;entryY=0.5;entryDx=0;entryDy=0;" edge="1" parent="WIyWlLk6GJQsqaUBKTNV-1" source="LsWoBtM9ElnnkDUphN9U-1" target="LsWoBtM9ElnnkDUphN9U-4">
          <mxGeometry relative="1" as="geometry" />
        </mxCell>
        <mxCell id="LsWoBtM9ElnnkDUphN9U-8" style="edgeStyle=orthogonalEdgeStyle;rounded=0;orthogonalLoop=1;jettySize=auto;html=1;exitX=0.5;exitY=1;exitDx=0;exitDy=0;entryX=0;entryY=0.5;entryDx=0;entryDy=0;" edge="1" parent="WIyWlLk6GJQsqaUBKTNV-1" source="LsWoBtM9ElnnkDUphN9U-1" target="LsWoBtM9ElnnkDUphN9U-5">
          <mxGeometry relative="1" as="geometry" />
        </mxCell>
        <mxCell id="LsWoBtM9ElnnkDUphN9U-10" style="edgeStyle=orthogonalEdgeStyle;rounded=0;orthogonalLoop=1;jettySize=auto;html=1;exitX=0.5;exitY=0;exitDx=0;exitDy=0;entryX=0;entryY=0.5;entryDx=0;entryDy=0;" edge="1" parent="WIyWlLk6GJQsqaUBKTNV-1" source="LsWoBtM9ElnnkDUphN9U-1" target="LsWoBtM9ElnnkDUphN9U-3">
          <mxGeometry relative="1" as="geometry" />
        </mxCell>
        <mxCell id="LsWoBtM9ElnnkDUphN9U-1" value="&lt;span style=&quot;font-size: 12px;&quot;&gt;待EDER审核&lt;/span&gt;" style="rounded=0;whiteSpace=wrap;html=1;" vertex="1" parent="WIyWlLk6GJQsqaUBKTNV-1">
          <mxGeometry x="460" y="860" width="120" height="60" as="geometry" />
        </mxCell>
        <mxCell id="LsWoBtM9ElnnkDUphN9U-6" style="edgeStyle=orthogonalEdgeStyle;rounded=0;orthogonalLoop=1;jettySize=auto;html=1;exitX=1;exitY=0.5;exitDx=0;exitDy=0;entryX=0;entryY=0.5;entryDx=0;entryDy=0;" edge="1" parent="WIyWlLk6GJQsqaUBKTNV-1" source="LsWoBtM9ElnnkDUphN9U-2" target="LsWoBtM9ElnnkDUphN9U-1">
          <mxGeometry relative="1" as="geometry" />
        </mxCell>
        <mxCell id="LsWoBtM9ElnnkDUphN9U-2" value="&lt;span style=&quot;font-size: 12px;&quot;&gt;待提交&lt;/span&gt;" style="rounded=0;whiteSpace=wrap;html=1;" vertex="1" parent="WIyWlLk6GJQsqaUBKTNV-1">
          <mxGeometry x="170" y="860" width="120" height="60" as="geometry" />
        </mxCell>
        <mxCell id="LsWoBtM9ElnnkDUphN9U-3" value="&lt;span style=&quot;font-size: 12px;&quot;&gt;全部通过&lt;/span&gt;" style="rounded=0;whiteSpace=wrap;html=1;" vertex="1" parent="WIyWlLk6GJQsqaUBKTNV-1">
          <mxGeometry x="770" y="680" width="120" height="60" as="geometry" />
        </mxCell>
        <mxCell id="LsWoBtM9ElnnkDUphN9U-14" style="edgeStyle=orthogonalEdgeStyle;rounded=0;orthogonalLoop=1;jettySize=auto;html=1;exitX=1;exitY=0.5;exitDx=0;exitDy=0;entryX=0.5;entryY=1;entryDx=0;entryDy=0;dashed=1;curved=1;" edge="1" parent="WIyWlLk6GJQsqaUBKTNV-1" source="LsWoBtM9ElnnkDUphN9U-4" target="LsWoBtM9ElnnkDUphN9U-2">
          <mxGeometry relative="1" as="geometry">
            <Array as="points">
              <mxPoint x="950" y="890" />
              <mxPoint x="950" y="1190" />
              <mxPoint x="230" y="1190" />
            </Array>
          </mxGeometry>
        </mxCell>
        <mxCell id="LsWoBtM9ElnnkDUphN9U-4" value="&lt;span style=&quot;font-size: 12px;&quot;&gt;部分通过&lt;/span&gt;" style="rounded=0;whiteSpace=wrap;html=1;" vertex="1" parent="WIyWlLk6GJQsqaUBKTNV-1">
          <mxGeometry x="770" y="860" width="120" height="60" as="geometry" />
        </mxCell>
        <mxCell id="LsWoBtM9ElnnkDUphN9U-13" style="edgeStyle=orthogonalEdgeStyle;rounded=0;orthogonalLoop=1;jettySize=auto;html=1;exitX=0.5;exitY=1;exitDx=0;exitDy=0;dashed=1;curved=1;" edge="1" parent="WIyWlLk6GJQsqaUBKTNV-1" source="LsWoBtM9ElnnkDUphN9U-5">
          <mxGeometry relative="1" as="geometry">
            <mxPoint x="833" y="1090" as="sourcePoint" />
            <mxPoint x="230" y="920" as="targetPoint" />
            <Array as="points">
              <mxPoint x="830" y="1150" />
              <mxPoint x="230" y="1150" />
            </Array>
          </mxGeometry>
        </mxCell>
        <mxCell id="LsWoBtM9ElnnkDUphN9U-5" value="&lt;span style=&quot;font-size: 12px;&quot;&gt;全部退回&lt;/span&gt;" style="rounded=0;whiteSpace=wrap;html=1;" vertex="1" parent="WIyWlLk6GJQsqaUBKTNV-1">
          <mxGeometry x="770" y="1040" width="120" height="60" as="geometry" />
        </mxCell>
        <mxCell id="LsWoBtM9ElnnkDUphN9U-12" style="edgeStyle=orthogonalEdgeStyle;rounded=0;orthogonalLoop=1;jettySize=auto;html=1;exitX=1;exitY=0.5;exitDx=0;exitDy=0;" edge="1" parent="WIyWlLk6GJQsqaUBKTNV-1" source="LsWoBtM9ElnnkDUphN9U-11" target="LsWoBtM9ElnnkDUphN9U-2">
          <mxGeometry relative="1" as="geometry" />
        </mxCell>
        <mxCell id="LsWoBtM9ElnnkDUphN9U-11" value="&lt;span style=&quot;font-size: 12px;&quot;&gt;start&lt;/span&gt;" style="rounded=0;whiteSpace=wrap;html=1;" vertex="1" parent="WIyWlLk6GJQsqaUBKTNV-1">
          <mxGeometry x="-100" y="860" width="120" height="60" as="geometry" />
        </mxCell>
        <mxCell id="LsWoBtM9ElnnkDUphN9U-15" value="新增" style="text;html=1;align=center;verticalAlign=middle;resizable=0;points=[];autosize=1;strokeColor=none;fillColor=none;" vertex="1" parent="WIyWlLk6GJQsqaUBKTNV-1">
          <mxGeometry x="50" y="860" width="50" height="30" as="geometry" />
        </mxCell>
        <mxCell id="LsWoBtM9ElnnkDUphN9U-16" value="提交" style="text;html=1;align=center;verticalAlign=middle;resizable=0;points=[];autosize=1;strokeColor=none;fillColor=none;" vertex="1" parent="WIyWlLk6GJQsqaUBKTNV-1">
          <mxGeometry x="350" y="860" width="50" height="30" as="geometry" />
        </mxCell>
        <mxCell id="LsWoBtM9ElnnkDUphN9U-18" value="审核.全部通过" style="text;html=1;align=center;verticalAlign=middle;resizable=0;points=[];autosize=1;strokeColor=none;fillColor=none;" vertex="1" parent="WIyWlLk6GJQsqaUBKTNV-1">
          <mxGeometry x="600" y="680" width="100" height="30" as="geometry" />
        </mxCell>
        <mxCell id="LsWoBtM9ElnnkDUphN9U-19" value="审核.部分通过" style="text;whiteSpace=wrap;" vertex="1" parent="WIyWlLk6GJQsqaUBKTNV-1">
          <mxGeometry x="610" y="860" width="110" height="40" as="geometry" />
        </mxCell>
        <mxCell id="LsWoBtM9ElnnkDUphN9U-20" value="审核.全部退回" style="text;html=1;align=center;verticalAlign=middle;resizable=0;points=[];autosize=1;strokeColor=none;fillColor=none;" vertex="1" parent="WIyWlLk6GJQsqaUBKTNV-1">
          <mxGeometry x="600" y="1040" width="100" height="30" as="geometry" />
        </mxCell>
        <mxCell id="LsWoBtM9ElnnkDUphN9U-21" value="全部退回" style="text;html=1;align=center;verticalAlign=middle;resizable=0;points=[];autosize=1;strokeColor=none;fillColor=none;" vertex="1" parent="WIyWlLk6GJQsqaUBKTNV-1">
          <mxGeometry x="560" y="1130" width="70" height="30" as="geometry" />
        </mxCell>
        <mxCell id="LsWoBtM9ElnnkDUphN9U-22" value="部分退回" style="text;html=1;align=center;verticalAlign=middle;resizable=0;points=[];autosize=1;strokeColor=none;fillColor=none;" vertex="1" parent="WIyWlLk6GJQsqaUBKTNV-1">
          <mxGeometry x="600" y="1180" width="70" height="30" as="geometry" />
        </mxCell>
        <mxCell id="LsWoBtM9ElnnkDUphN9U-23" value="回收委托单状态迁移" style="text;html=1;align=center;verticalAlign=middle;resizable=0;points=[];autosize=1;strokeColor=none;fillColor=none;fontSize=17;" vertex="1" parent="WIyWlLk6GJQsqaUBKTNV-1">
          <mxGeometry x="100" y="638" width="180" height="30" as="geometry" />
        </mxCell>
        <mxCell id="LsWoBtM9ElnnkDUphN9U-24" value="" style="rounded=0;whiteSpace=wrap;html=1;fillColor=#f8cecc;strokeColor=#b85450;" vertex="1" parent="WIyWlLk6GJQsqaUBKTNV-1">
          <mxGeometry x="1126" y="690" width="230" height="160" as="geometry" />
        </mxCell>
        <mxCell id="LsWoBtM9ElnnkDUphN9U-25" value="待下发" style="whiteSpace=wrap;html=1;" vertex="1" parent="WIyWlLk6GJQsqaUBKTNV-1">
          <mxGeometry x="1196" y="750" width="120" height="60" as="geometry" />
        </mxCell>
        <mxCell id="LsWoBtM9ElnnkDUphN9U-26" value="零件回收主单状态迁移" style="text;html=1;align=center;verticalAlign=middle;resizable=0;points=[];autosize=1;strokeColor=none;fillColor=none;" vertex="1" parent="WIyWlLk6GJQsqaUBKTNV-1">
          <mxGeometry x="1126" y="690" width="140" height="30" as="geometry" />
        </mxCell>
        <mxCell id="LsWoBtM9ElnnkDUphN9U-27" style="rounded=0;orthogonalLoop=1;jettySize=auto;html=1;exitX=1;exitY=0.5;exitDx=0;exitDy=0;entryX=0.322;entryY=0.563;entryDx=0;entryDy=0;entryPerimeter=0;dashed=1;" edge="1" parent="WIyWlLk6GJQsqaUBKTNV-1" source="LsWoBtM9ElnnkDUphN9U-3" target="LsWoBtM9ElnnkDUphN9U-24">
          <mxGeometry relative="1" as="geometry" />
        </mxCell>
      </root>
    </mxGraphModel>
  </diagram>
</mxfile>
